<svg width="33" height="49" viewBox="0 0 33 49" fill="none" xmlns="http://www.w3.org/2000/svg">
<path d="M15.5258 0.01576C7.13358 0.420204 0.258029 7.44743 0.0052508 15.8902C-0.0958603 19.9346 1.26914 23.6252 3.59469 26.5574C7.03247 30.8546 9.66136 35.708 11.5825 40.8646C12.2397 42.6341 12.8464 44.353 13.4025 45.9708C14.363 48.7513 18.3064 48.7513 19.2669 45.9708C19.823 44.353 20.4297 42.6341 21.0869 40.8646C22.9575 35.7585 25.4853 30.9052 28.923 26.7091C31.2486 23.878 32.6641 20.2885 32.6641 16.3452C32.6641 7.04298 24.9291 -0.388684 15.5258 0.01576ZM16.3347 25.698C11.178 25.698 6.98192 21.5019 6.98192 16.3452C6.98192 11.1885 11.178 6.99243 16.3347 6.99243C21.4914 6.99243 25.6875 11.1885 25.6875 16.3452C25.6875 21.5019 21.4914 25.698 16.3347 25.698Z" fill="#DD0000"/>
</svg>
