<svg id="Layer_1" data-name="Layer 1" xmlns="http://www.w3.org/2000/svg" viewBox="0 0 156.32 148.08"><defs><style>.cls-1{fill:#2054be;}</style></defs><path class="cls-1" d="M95.27,171.68a17.53,17.53,0,0,0,12.19-4.48c4.61-4.21,9.13-8.5,13.68-12.77.2-.18.6-.34.47-.65s-.54-.16-.81-.13a19.71,19.71,0,0,1-8.54-1.09,1.31,1.31,0,0,0-1.49.33c-2.77,2.63-5.57,5.22-8.35,7.84a9.82,9.82,0,0,1-13.82-.18c-1.44-1.44-2.83-2.93-4.24-4.41-4.78-5-9.57-10-14.32-15.08A6.62,6.62,0,0,1,68,135.7c.46-4.21,2.94-6.7,7.27-7.2,3.45-.4,6.94-.35,10.42-.53,3.79-.19,7.59-.35,11.39-.5a1,1,0,0,0,1.07-.8,29.88,29.88,0,0,1,3.08-7.19c.59-1,.48-1.18-.67-1.21-4-.13-8-.25-11.92-.39-2.14-.07-4.27-.2-6.4-.28-1.93-.07-3.86-.28-5.78-.16a17.7,17.7,0,0,0-12.2,29.43c2.08,2.28,4.27,4.46,6.4,6.7,4,4.21,8,8.47,12.06,12.65A17.7,17.7,0,0,0,95.27,171.68ZM157.6,103a.65.65,0,0,0-.42.46,21.09,21.09,0,0,1-5.46,7.27,1.27,1.27,0,0,0-.39,1.47c.9,3.76,1.81,7.51,2.67,11.28A9.5,9.5,0,0,1,147.05,135l-.26.06c-2.15.54-4.32,1-6.48,1.53-6.24,1.47-12.47,3-18.7,4.4a9.74,9.74,0,0,1-5-.07A9.5,9.5,0,0,1,111,126.64c.9-1.43,1.78-2.87,2.67-4.3l7.23-11.64c.28-.45.58-.87.06-1.39a25.45,25.45,0,0,1-4.11-6c-.46-.86-.48-.86-1,0-4,6.35-7.86,12.73-11.85,19a17.51,17.51,0,0,0,1.84,21.23c4.51,4.8,10.06,7,16.56,5.64q13.68-2.85,27.23-6.38a17.43,17.43,0,0,0,12.64-19.74c-.71-4-1.8-7.92-2.73-11.88C158.92,108.46,158.26,105.76,157.6,103ZM59.69,148.2l.12-.19-.52-.78a19.77,19.77,0,0,1-3.21-7.3,2.2,2.2,0,0,0-1.8-1.91c-3.68-1.05-7.37-2.11-11-3.29a9.4,9.4,0,0,1-6.14-11.53q3.69-12.45,7.49-24.87a9.74,9.74,0,0,1,18-1.75c1,1.85,2,3.74,3,5.61,2,3.65,4,7.3,6,11,.23.41.46.71,1,.56a25.94,25.94,0,0,1,7.24-.57c1,0,1-.12.58-1-1.12-2.1-2.26-4.19-3.41-6.29-2.53-4.65-5-9.35-7.64-13.92a17.69,17.69,0,0,0-20.94-7.84c-6.19,2-10,6.34-11.87,12.52-2,6.77-4.08,13.52-6.1,20.28-.74,2.48-1.7,4.9-1.87,7.51A17.71,17.71,0,0,0,41.69,143c4.9,1.44,9.8,2.91,14.71,4.36Zm71.54-101c.2.31.35.56.51.8a20.8,20.8,0,0,1,3.38,7.69,1.62,1.62,0,0,0,1.32,1.39c3.68,1.06,7.36,2.13,11,3.28a9.57,9.57,0,0,1,6.46,11.91l0,.09q-3.7,12.36-7.47,24.7a9.73,9.73,0,0,1-17.8,1.84c-1.26-2.3-2.5-4.6-3.75-6.9l-5.25-9.67c-.23-.42-.42-.91-1.1-.73a25.62,25.62,0,0,1-7.15.56c-1.13,0-1.17,0-.63,1,3.59,6.62,7.14,13.27,10.79,19.86a17.7,17.7,0,0,0,18.84,8.72,17.34,17.34,0,0,0,14-12.59c2.51-8.07,4.89-16.19,7.34-24.28a16.54,16.54,0,0,0,.68-7.49c-1.17-7.65-5.49-12.72-13-15-5.72-1.77-11.48-3.43-17.23-5.13A1.49,1.49,0,0,0,131.23,47.2ZM69.36,41.54a1.78,1.78,0,0,0,.29.12h.79a19.39,19.39,0,0,1,8,1,1.78,1.78,0,0,0,2.1-.46c2.67-2.57,5.38-5.09,8.08-7.63a9.76,9.76,0,0,1,12.9-.75,23.86,23.86,0,0,1,2.66,2.66c5.42,5.69,10.88,11.36,16.26,17.1a8.92,8.92,0,0,1,2.06,9.92,9.16,9.16,0,0,1-8.29,6.28,55.91,55.91,0,0,1-5.79,0c-4.73-.14-9.47-.31-14.2-.47-.56,0-1,0-1.24.68a24.59,24.59,0,0,1-3.06,6.34c-.55.84-.42,1,.57,1.07,2.69.07,5.38.12,8.07.2,3.33.09,6.66.26,10,.3a41.36,41.36,0,0,0,7.79-.13A17,17,0,0,0,130.2,66.3c2.37-6.44,1.33-12.55-3.28-17.66-6.09-6.74-12.41-13.28-18.78-19.77a17.87,17.87,0,0,0-25-.32q-6.33,6-12.69,11.91A5.31,5.31,0,0,0,69.36,41.54ZM33.48,92.2h.2c.15-.31.31-.61.46-.92a20.53,20.53,0,0,1,4.92-6.51,1.76,1.76,0,0,0,.61-2c-.9-3.61-1.75-7.23-2.6-10.85a9.59,9.59,0,0,1,6.87-11.69l.48-.12,21-5A32.74,32.74,0,0,1,71.6,53.9,9.63,9.63,0,0,1,80.43,68c-.87,1.64-1.93,3.18-2.91,4.77L70.1,84.7c-.22.37-.52.72-.09,1.17A25.73,25.73,0,0,1,74.21,92c.43.81.53.8,1,0,4.06-6.53,8.15-13,12.14-19.6a16.4,16.4,0,0,0,2.16-11.82A17.84,17.84,0,0,0,68.84,46.06l-1,.2c-8.62,1.94-17.21,3.94-25.79,6.07a17.66,17.66,0,0,0-13,21.27q1.35,5.79,2.73,11.53Q32.63,88.69,33.48,92.2Zm91.21,21.1c-.3,0-.48-.11-.57,0s.11.43.23.6c1.72,2.42,3.49,4.8,5.4,7.07a17.54,17.54,0,0,0,8.78,5.77c3.51,1,7.12,1.62,10.7,2.32.19,0,.44.1.56-.11s-.09-.49-.24-.69c-1.71-2.31-3.37-4.66-5.25-6.85a15.72,15.72,0,0,0-6.12-4.67C133.79,115,129.09,114.4,124.69,113.3Zm-29,16.51a48.94,48.94,0,0,0-3.51,7.86,18.7,18.7,0,0,0-.17,13c1,2.91,2.1,5.78,3.21,8.65.08.2.1.53.4.49s.29-.34.37-.55c1-2.41,2-4.83,2.91-7.28a17.14,17.14,0,0,0,.31-11.77c-.84-2.47-1.66-5-2.5-7.42-.32-1-.67-2-1-3Zm-54.58-1.46a1.82,1.82,0,0,0,.33,0c3-.5,5.94-1,8.9-1.53a18.38,18.38,0,0,0,9.9-4.72,71.14,71.14,0,0,0,6.85-8.26c.12-.15.32-.32.16-.53s-.39-.08-.58,0c-3.79.74-7.6,1.36-11.34,2.33A16.59,16.59,0,0,0,47,120.82c-1.94,2.18-3.72,4.48-5.5,6.78-.16.18-.42.37-.36.75ZM124.18,84.6a.88.88,0,0,0,.23,0c3.53-.7,7.07-1.29,10.58-2.11a16.8,16.8,0,0,0,7.92-3.9,71.5,71.5,0,0,0,7.2-8.54c.11-.13.28-.27.19-.45s-.36-.1-.55-.07c-3,.45-6,.93-9,1.54a18.44,18.44,0,0,0-9.6,4.75,75.31,75.31,0,0,0-6.9,8.33A.38.38,0,0,0,124.18,84.6ZM97,35.36q-.15.22-.27.45c-1.29,3.3-2.62,6.59-3.59,10A16.88,16.88,0,0,0,92.67,54,57,57,0,0,0,96.85,65.4a.38.38,0,0,1,.19.06,1.56,1.56,0,0,0,.16-.28c1.24-3.63,2.62-7.21,3.65-10.9a15.39,15.39,0,0,0,.34-7.74,65.78,65.78,0,0,0-4-10.86A2,2,0,0,0,97,35.36ZM67.4,79.93a.92.92,0,0,0-.26-.62c-1.66-2.21-3.35-4.39-5.16-6.49a18.35,18.35,0,0,0-10.11-6.19c-3.28-.74-6.6-1.26-9.92-1.78-.23,0-.51-.2-.66,0s.11.47.26.66c1.66,2.17,3.35,4.32,5.13,6.4a17,17,0,0,0,9.56,5.78c2.32.49,4.64,1,7,1.43C64.59,79.42,66,79.67,67.4,79.93ZM62.29,164a5,5,0,0,0,0-10.08A5.09,5.09,0,0,0,57.18,159v0a5,5,0,0,0,5,5Zm66.56,0a5,5,0,0,0,.08-10.08h0a5.12,5.12,0,0,0-5.14,5.06,5,5,0,0,0,5,5Zm39.85-61.35a5,5,0,1,0-.08,0ZM17.3,97.61a4.91,4.91,0,0,0,4.76,5.06h.24a5,5,0,1,0,.08-10.06,4.93,4.93,0,0,0-5.07,4.8A1.34,1.34,0,0,0,17.3,97.61ZM128.92,40.83A5,5,0,0,0,134,35.91v-.08a5.07,5.07,0,0,0-5-5,5,5,0,0,0-5.15,4.85v.25a4.88,4.88,0,0,0,4.84,4.91Zm-61.59-5a4.93,4.93,0,0,0-4.87-5h-.18a5.1,5.1,0,0,0-5.08,5.1v0a5,5,0,0,0,5.06,4.94h.08a4.89,4.89,0,0,0,5-4.76C67.34,36,67.34,35.88,67.33,35.78ZM96.68,98h6.23c.32,0,.78.17.93-.25a1.21,1.21,0,0,0-.29-1.06,2.17,2.17,0,0,0-1.13-.79c-.77-.28-1.55-.52-2.31-.8a4.6,4.6,0,0,1-1.74-1c-.24-.26-.54-.6-.31-.92A11.44,11.44,0,0,1,99,91.59a2.08,2.08,0,0,0,.58-1.76,13.83,13.83,0,0,0-.48-2.37,2.6,2.6,0,0,0-3.24-1.71,2.78,2.78,0,0,0-.92.51c-.83.71-1.51,3.89-1,4.83.28.49.63,1,.9,1.46.52,1,.48,1.28-.47,1.88a13,13,0,0,1-3.06,1.27,3,3,0,0,0-1.59,1,1.06,1.06,0,0,0-.28,1c.15.39.6.29.93.29Zm-11.49.92H83.35c-1,0-1.16.21-1,1.14a14.55,14.55,0,0,0,3,7,.69.69,0,0,0,.94.24l.06-.05A30.36,30.36,0,0,1,89,105.73c.63-.29.69-.62.43-1.22a14.37,14.37,0,0,1-1.26-4.86c0-.58-.34-.81-.9-.8Zm22.74,0h-1.84c-.62,0-1,.19-1,.87a17.29,17.29,0,0,1-1.45,5.27.69.69,0,0,0,.24.94.59.59,0,0,0,.14.06c.81.41,1.62.82,2.39,1.28a.79.79,0,0,0,1.12-.1.41.41,0,0,0,.07-.11,14.53,14.53,0,0,0,3.11-7.29c.09-.61-.14-1-.8-.94Zm-7.32,0H98c-.49,0-.78.22-.78.73v3.83c0,.43.18.75.65.77a15.28,15.28,0,0,1,3.66.82.71.71,0,0,0,.95-.33.75.75,0,0,0,.05-.16,23.2,23.2,0,0,0,1.32-4.78c.11-.67-.17-.9-.8-.89C102.25,98.89,101.43,98.88,100.61,98.88ZM85.32,98h1.83c.61,0,1.12-.17,1.27-.88a1.69,1.69,0,0,1,.55-1c.51-.4.75-.74.15-1.28-.26-.22-.07-.54.12-.78a3.71,3.71,0,0,0,.61-3.57c-.34-1.13-.8-1.65-1.8-1.68s-1.5.52-1.88,1.53A3.46,3.46,0,0,0,86.66,94c.54.67.21,1.06-.41,1.34s-1.3.54-1.94.81a3.41,3.41,0,0,0-1.47,1.1c-.33.45-.27.76.37.76Zm22.51,0h2.1c.7,0,.81-.32.45-.89a2.2,2.2,0,0,0-1.21-.81,12.82,12.82,0,0,1-2.13-.82c-.67-.39-1.06-.85-.43-1.58,1-1.17.75-2.49.38-3.77a1.77,1.77,0,0,0-2.2-1.19,1.87,1.87,0,0,0-.8.5,3.9,3.9,0,0,0-.42,4c.33.57,1.06,1.15.25,1.91-.19.18,0,.36.12.52s.58.43.63.7c.31,1.56,1.46,1.54,2.66,1.49ZM92.6,98.9H90.14c-.59,0-.89.26-.8.86a18.13,18.13,0,0,0,1.32,4.68c.14.32.35.55.74.43a18.23,18.23,0,0,1,3.87-.73c.51,0,.67-.38.67-.85V99.72a.69.69,0,0,0-.56-.8,1,1,0,0,0-.24,0ZM95.92,112V105.9c0-.39-.3-.54-.67-.53a16,16,0,0,0-3.28.5c-.37.09-.47.33-.29.65A19.67,19.67,0,0,0,95.92,112Zm-2,0a54,54,0,0,1-3.37-5.09c-.22-.39-.6-.28-.93-.13a21.07,21.07,0,0,0-2.37,1.32c-.5.3-.53.59-.07.92.69.48,1.37,1,2.1,1.41A10.84,10.84,0,0,0,93.92,112Zm3.27-3.15h0v2.61c0,.2-.06.46.15.56s.4-.16.54-.32a35.82,35.82,0,0,0,3.38-4.65c.33-.53.17-.79-.37-1a19.37,19.37,0,0,0-2.73-.65c-.67-.12-1,.11-1,.81,0,.89,0,1.76,0,2.63Zm2,3.28A15.1,15.1,0,0,0,105.7,109c.42-.33.21-.6-.14-.8-.74-.41-1.49-.79-2.24-1.19-.41-.22-.68-.11-.93.3-.52.87-1.08,1.72-1.64,2.56a21.41,21.41,0,0,0-1.51,2.24Z" transform="translate(-17.3 -23.61)"/></svg>